<svg width="981" height="981" viewBox="0 0 981 981" fill="none" xmlns="http://www.w3.org/2000/svg">
<g clip-path="url(#clip0_2_7)">
<path d="M96 490.079C96 505.116 108.188 517.304 123.225 517.304H641.766L540.622 618.29C530.017 628.895 530.017 646.148 540.622 656.753C545.846 661.977 552.81 664.667 559.775 664.667C566.739 664.667 573.704 661.977 578.927 656.753L726.291 509.39C736.896 498.785 736.896 481.532 726.291 470.927L578.927 323.563C568.322 312.958 551.069 312.958 540.464 323.563C529.859 334.168 529.859 351.422 540.464 362.027L641.45 463.012H123.225C108.188 463.012 96 475.042 96 490.079Z" fill="black"/>
<path d="M723.441 877.244C813.189 877.244 886 804.275 886 714.527V265.473C886 175.725 813.031 102.756 723.441 102.756H274.387C184.64 102.756 111.828 175.725 111.828 265.473V357.753C111.828 372.79 124.016 384.82 138.895 384.82C153.932 384.82 166.12 372.632 166.12 357.753V265.473C166.12 205.799 214.714 157.048 274.387 157.048H723.441C783.115 157.048 831.708 205.641 831.708 265.473V714.527C831.708 774.201 783.115 822.952 723.441 822.952H274.387C214.714 822.952 166.12 774.359 166.12 714.527V623.355C166.12 608.318 153.932 596.13 138.895 596.13C123.858 596.13 111.828 608.318 111.828 623.355V714.527C111.828 804.275 184.798 877.244 274.387 877.244H723.441Z" fill="black"/>
</g>
<defs>
<clipPath id="clip0_2_7">
<rect width="790" height="790" fill="white" transform="translate(96 95)"/>
</clipPath>
</defs>
</svg>
