<svg width="981" height="981" viewBox="0 0 981 981" fill="none" xmlns="http://www.w3.org/2000/svg">
<g clip-path="url(#clip0_2_7)">
<path d="M477.78 822.967H281.901C228.668 822.967 185.476 779.616 185.476 726.542V254.458C185.476 201.225 228.828 158.033 281.901 158.033H480.967C492.921 158.033 502.484 148.47 502.484 136.516C502.484 124.563 492.921 115 480.967 115H281.901C204.921 115 142.444 177.636 142.444 254.458V726.542C142.444 803.523 205.08 866 281.901 866H477.78C489.733 866 499.296 856.437 499.296 844.484C499.296 832.53 489.574 822.967 477.78 822.967Z" fill="black"/>
<path d="M832.242 475.359L695.493 338.611C687.046 330.163 673.499 330.163 665.052 338.611C656.605 347.058 656.605 360.605 665.052 369.052L765.143 469.143H328.6C316.646 469.143 307.084 478.706 307.084 490.659C307.084 502.613 316.646 512.176 328.6 512.176H765.143L665.052 612.267C656.605 620.714 656.605 634.261 665.052 642.708C669.196 646.852 674.774 649.083 680.193 649.083C685.612 649.083 691.19 647.012 695.334 642.708L832.082 505.96C840.689 497.353 840.689 483.647 832.242 475.359Z" fill="black"/>
</g>
<defs>
<clipPath id="clip0_2_7">
<rect width="751" height="751" fill="white" transform="translate(115 115)"/>
</clipPath>
</defs>
</svg>
