<svg width="800" height="800" viewBox="0 0 800 800" fill="none" xmlns="http://www.w3.org/2000/svg">
<g clip-path="url(#clip0_51_21)">
<path d="M400 95.6765C223.552 95.6765 80 213.251 80 357.77C80 442.93 129.493 521.515 213.23 570.711C201.612 625.024 175.576 663.136 175.291 663.548L146.827 704.32L196.196 697.993C201.883 697.261 334.331 679.706 428.734 618.811C506.259 613.168 578.261 584.727 632.057 538.388C688.767 489.533 720 425.39 720 357.773C720 213.251 576.448 95.6765 400 95.6765ZM420.223 575.187L414.201 575.531L409.193 578.896C354.296 615.775 280.803 636.233 234.57 646.237C244.269 624.556 254.461 595.734 259.549 562.458L261.926 546.905L247.993 539.602C170.406 498.944 124.085 430.974 124.085 357.77C124.085 237.562 247.86 139.761 400 139.761C552.14 139.761 675.915 237.559 675.915 357.77C675.915 471.456 563.602 566.955 420.223 575.187Z" fill="black"/>
</g>
<defs>
<clipPath id="clip0_51_21">
<rect width="640" height="640" fill="white" transform="translate(80 80)"/>
</clipPath>
</defs>
</svg>
