<svg width="800" height="800" viewBox="0 0 800 800" fill="none" xmlns="http://www.w3.org/2000/svg">
<path d="M400 400C433.141 400 465.537 390.173 493.093 371.761C520.648 353.349 542.125 327.179 554.808 296.561C567.49 265.943 570.808 232.252 564.343 199.748C557.877 167.244 541.919 137.387 518.485 113.953C495.051 90.5189 465.194 74.5601 432.69 68.0947C400.186 61.6292 366.495 64.9475 335.877 77.6299C305.259 90.3124 279.089 111.789 260.677 139.345C242.265 166.9 232.438 199.297 232.438 232.438C232.438 276.878 250.091 319.498 281.515 350.922C312.939 382.346 355.56 400 400 400ZM400 112.75C423.672 112.75 446.812 119.77 466.495 132.921C486.177 146.072 501.518 164.765 510.577 186.635C519.636 208.505 522.006 232.57 517.388 255.787C512.77 279.004 501.37 300.331 484.632 317.069C467.893 333.808 446.567 345.207 423.35 349.825C400.133 354.443 376.068 352.073 354.198 343.014C332.328 333.955 313.635 318.615 300.483 298.932C287.332 279.25 280.312 256.109 280.312 232.438C280.313 200.694 292.922 170.251 315.368 147.806C337.814 125.36 368.257 112.75 400 112.75Z" fill="black"/>
<path d="M423.938 447.875H376.062C306.228 447.875 239.253 475.617 189.872 524.997C140.492 574.378 112.75 641.353 112.75 711.187C112.75 717.536 115.272 723.625 119.761 728.114C124.25 732.603 130.339 735.125 136.688 735.125H663.312C669.661 735.125 675.75 732.603 680.239 728.114C684.728 723.625 687.25 717.536 687.25 711.187C687.25 641.353 659.508 574.378 610.128 524.997C560.747 475.617 493.772 447.875 423.938 447.875ZM162.061 687.25C167.947 634.603 193.025 585.97 232.502 550.644C271.979 515.318 323.087 495.775 376.062 495.75H423.938C476.913 495.775 528.021 515.318 567.498 550.644C606.975 585.97 632.053 634.603 637.939 687.25H162.061Z" fill="black"/>
</svg>
